<?xml version="1.0" standalone="no"?>
<!DOCTYPE svg PUBLIC "-//W3C//DTD SVG 20010904//EN"
 "http://www.w3.org/TR/2001/REC-SVG-20010904/DTD/svg10.dtd">
<svg version="1.0" xmlns="http://www.w3.org/2000/svg"
 width="130.000000pt" height="130.000000pt" viewBox="0 0 130.000000 130.000000"
 preserveAspectRatio="xMidYMid meet">
<metadata>
Created by potrace 1.11, written by Peter Selinger 2001-2013
</metadata>
<g transform="translate(0.000000,130.000000) scale(0.100000,-0.100000)"
fill="#000000" stroke="none">
<path d="M627 1014 c-36 -71 -72 -225 -70 -306 0 -21 0 -38 -1 -38 -1 0 -31
36 -66 80 -61 79 -154 171 -190 190 -17 9 -17 4 5 -78 13 -48 37 -125 54 -171
17 -47 31 -86 31 -88 0 -1 -23 15 -51 36 -91 69 -222 95 -311 62 -21 -7 -18
-10 34 -35 74 -35 151 -105 204 -186 56 -85 61 -90 117 -133 63 -48 160 -77
257 -78 169 -1 291 64 378 201 62 98 150 176 229 204 l38 13 -25 13 c-14 7
-56 13 -95 13 -58 1 -82 -5 -136 -30 -36 -16 -82 -45 -102 -62 l-37 -33 29 70
c30 73 55 151 76 239 11 49 11 52 -6 42 -37 -19 -141 -124 -191 -190 -51 -69
-70 -84 -64 -51 10 52 -45 282 -77 326 -14 19 -15 19 -30 -10z"/>
</g>
</svg>
